<?xml version="1.0" encoding="utf-8"?>

<!DOCTYPE svg PUBLIC "-//W3C//DTD SVG 1.1//EN" "http://www.w3.org/Graphics/SVG/1.1/DTD/svg11.dtd">
<svg version="1.1" id="Layer_1" xmlns="http://www.w3.org/2000/svg" xmlns:xlink="http://www.w3.org/1999/xlink" x="0px" y="0px"
	 viewBox="-61.5394 -36.2826 2043.0787 1204.5652" enable-background="new -61.5394 -36.2826 2043.0787 1204.5652"
	 xml:space="preserve">
<path d="M254.41,0h13.96c32.09,1.55,64.39,9.01,92.31,25.34c25.3,14.47,46.46,36.16,59.99,61.99c3.39,6.87,5.54,15.21,2.27,22.54
	c-3.88,8.65-12.21,13.93-19.52,19.43c-5.72,3.92-12.25,7.91-19.46,7.34c-5.51-0.33-9.89-4.42-12.73-8.85
	c-8.22-12.91-16.26-26.06-26.49-37.51c-6.9-7.66-15.15-14.51-25.05-17.81c-8.53-3.12-17.71-3.22-26.67-3.38
	c-6.55-0.06-13.22,0.23-19.45,2.41c-8.94,3.04-16.46,8.98-23.74,14.8c21.3,18.05,31.3,45.83,35.17,72.75
	c2.72,24.46-0.96,49.03-5.26,73.09c-5.51,32.43-12.98,64.76-13.65,97.79c-0.38,6.68,0.35,13.35,0.23,20.03
	c-0.2,15.4,1.35,31.11,7.04,45.54c3.97,10.06,10.9,19.51,20.96,24.1c8.98,4.08,19.27,3.68,28.7,1.5
	c8.55-1.73,17.36-4.24,24.08-10.08c4.38-3.99,7.74-8.94,11.13-13.77c24.9-36.91,37.56-80.2,58.97-118.98
	c11.56-21.02,26.01-41.44,46.59-54.46c13.57-8.98,30.83-7.85,45.21-14.9c16.34-7.94,28.67-21.72,40.74-34.9
	c13.55-15.17,27.36-30.5,44.42-41.82c14.55-9.74,31.4-15.93,48.76-18.05c69.97-8.1,138.12-30.1,208.96-30.75
	c36.19-0.35,71.06-12.09,107.16-13.45c42.2401-1.3,83.7501,9.55,125.96,8.92c8-0.5,16.03-0.77,24.05-0.53
	c42.6,1.24,83.7899,16.47,119.74,38.79c18.46,11.28,35.47,24.67,53.14,37.1c16.85,11.58,34.2699,22.28,51.37,33.49
	c14,8.83,27.3899,18.59,40.6399,28.51c65.9,48.87,138.63,88.12,214.52,119.09c17.04,7.08,34.23,13.81,51.13,21.21
	c56.4501,24.32,111.87,51.47,170.55,70.18c17,7.47,35.24,12.16,53.7999,13.18c15,1.24,30.01-0.51,45.01-0.59
	c3.99,0.01,8.77,0.44,11.05,4.25v2.94c-2.1,6.6-8.6,10.13-14.3101,13.18c-14.2999,6.99-29.98,10.65-45.61,13.22
	c-27.1499,4.34-54.76,3.37-82.1499,2.88c-48.76-0.98-97.39-4.97-146.01-8.47c-50.25-3.89-100.52-7.88-150.9-9.55
	c-46.55-1.31-93.3-0.98-139.5601,4.86c-3.62,8.96-7.4199,17.92-12.8199,25.97c-5.79,8.98-13.3,16.7-21.15,23.88
	c-11.89,11.38-30.49,11.95-41.47,24.52c-13.21,14.6-27.8,28.3-45.02,38.07c-7.8,4.33-16.1801,7.63-24.92,9.43
	c-10.1,1.51-19.9099,4.71-30.1799,5.08c-30.16,1.69-61.1801-3.8-87.99-18.03c12.8099,12.5,22.6799,27.63,31.3199,43.21
	c6.17,11.73,11.6801,23.91,15.17,36.74c5.3099,19.6201,12.16,38.85,21.0599,57.13c15.0701,31.35,36.14,59.72,61.4501,83.55
	c14.2,13.8199,30.6599,25.17,44.08,39.8c6,6.67,11.51,13.97,14.85,22.37c2.88,6.9,3.54,14.41,5.28,21.63
	c4.49,19.63,12.41,38.32,21.97,55.99c3.8401,7.1,8.27,13.88,11.88,21.12c2.5701,5.19,4.15,11.01,3.4501,16.84
	c-1.5701,14.63-8.36,28.3-8.65,43.13c-0.6,6.77,0.29,13.9099-2.37,20.33c-1.91,4.78-6.9601,6.87-11.52,8.33
	c-13.2,4.29-27.3199,3.13-40.78,6.04c-4.65,0.91-9.36,1.88-14.12,1.6801c-5.84-0.27-11.1699-3.35-17.04-3.26
	c-2.83-0.04-5.37,1.3099-7.9099,2.36c-0.98-3.3201-1.99-6.63-2.9601-9.9401c-10.5399,2.41-21.3099,3.4-32.0699,4.0601
	c-4.71-0.27-9.33-1.97-14.09-1.3c-2.74,0.1801-4.92,2.01-7.0701,3.51c-4.59-11.74,1.0801-24.41,8.65-33.46
	c3.48-2.82,6.83-5.79,10.04-8.93c3.88-3.68,9.4199-4.52,14.5699-4.12c2.0801-1.75,4.17-3.6,6.77-4.55
	c6.12-2.45,12.9401-0.98,19.2-2.7401c2.6001-9.03,2.4401-18.73,2.67-28.09c-0.4299-13.37-1.08-27.64-8.29-39.35
	c-8.5699-13.91-19.7799-26.02-27.8999-40.23c-5.4301-8.55-9.6101-17.77-14.24-26.73c-9.7201-13.15-22.2301-23.98-35.4-33.55
	c-28.54-20.46-60.61-35.17-90.4601-53.51c-11.2699-7.05-22.23-14.69-32.0599-23.66c-0.15,0.08-0.44,0.23-0.59,0.31
	c-3.95,21.98-3.36,44.56-1.05,66.7c4.06,37.81,14.16,74.58,20.93,111.92c2.2401,10.76-1,21.7-5.39,31.47
	c-3.56,7.56-7.35,15.07-9.79,23.09c-6.09,19.29-7.08,39.64-8.93,59.6501c-1.18,13.97,3.56,27.9299,0.95,41.84
	c-1.4,8.63-8.42,14.8099-15.54,19.0699c-6.32,3.73-13.94,3.53-21.01,3.04c-4.46-0.0601-9.3-0.72-13.3799,1.49
	c-7.34,3.84-15.8,6.17-24.1,4.84c-2.89-0.48-5.52-2.22-8.5-2.0299c-5.33,0.2799-10.63,0.98-15.96,1.3199
	c-5.96,0.9399-12-4.03-12.41-10.05c-10.51,1.1801-20.96,3.28-31.58,3.03c-8.36,0.2001-16.73,0.03-25.08,0.4
	c-7.41,1.37-14.96,5.0699-22.57,2.49c-2.69-1.0601-6.69-1.96-6.78-5.52c-0.61-5,1.88-9.61,3.85-14.02
	c-3.2401-0.23-6.47-0.5-9.7-0.7999c-0.08-5.89,0.98-12.05,4.87-16.6801c6.4-8.4399,17.01-11.5,26.5-15.03
	c7.57-2.49,15.01-5.4199,21.87-9.5299c10.52-5.88,20.81-12.2001,30.58-19.27c4.85-3.8,10.35-7.12,13.65-12.4901
	c4.62-7.25,7.63-15.4,12.35-22.6c5.41-8.69,11.26-17.1,16.65-25.78c0.4-5.3101-0.87-10.64-1.04-15.97
	c-1.22-15.57-1.6-31.22-0.79-46.82c1.14-19.59-2.17-39.26-8.51-57.77c-13.65-39.91-37.31-75.2599-54.66-113.5099
	c-8.29-17.87-15.3-36.39-20.1-55.51c-29.33,8.87-58.52,18.19-88.08,26.25c-39.56,10.59-80.73,18.04-121.79,13.86
	c11.53,17.99,16.99,39.07,28.24,57.22c3.3,5.31,7.62,10.28,8.88,16.58c1.14,6.23,0.1,12.58,0.43,18.87
	c1.86,56.04-4.54,112.03-14.9,167.05c-4.2599,23.2599-9,46.43-13.25,69.7c-0.65,4.03-2.27,8.25-0.66,12.28
	c3.63,10.88,1.7,22.41,1.49,33.61c-3.66-3.54-5.41-9.6801-11.06-10.49c2.22,13.11,4.28,26.6899,1.02,39.8199
	c-0.65,3.9401-4.47,6.04-7.52,8.03c-9.01,5.13-19.77,3.61-29.53,6.02h-4c-3.19-0.4301-6.11-1.8199-8.82-3.49
	c-0.24-1.47-0.48-2.9301-0.71-4.37c-3.13,0.01-6.36-0.09-9.26,1.26c-4.11,2.23-8.28-0.8101-12.14-2.12
	c0.46-5.27,0.4-10.5901,1.21-15.8101c3.34-8.9399,10.3-16.02,13.88-24.84c3.1-10.63,0.94-21.83,1.85-32.7
	c1.29-13.7201,3.06-27.3901,5.1201-41.0101c4.49-25.75,2.54-52.01,0.48-77.89c-1.56-19.3101-3.74-38.6-3.8-57.9901
	c-0.4-18.73,0.73-37.46,2.78-56.08l-0.35-0.62c-30.42-15.58-59.5-34.09-84.9-57.07c-14.93-12.3-27.14-28.79-45.77-35.82
	c-0.97,33.48,1.3,67.6-7.28,100.32c-3.11,9.51-3.92,19.55-6.45,29.21c-7.5,31.14-22.62,59.65-37.56,87.73
	c-14.27,26.2-29.79,51.73-46.89,76.17c-6.35,8.4-8.91,18.79-13.9,27.9301c-2.94,5.5299-7.92,9.5699-11.06,14.96
	c-6.67,11.0599-9.62,23.84-12.25,36.35c-0.35,8.74,1.34,18.28-3.23,26.27c-4.06,5.78-11.88,6.4399-18.34,6.45
	c-6.02,0.3201-12.07-2.4399-17.95-0.1899c-4.55,1.59-9.48,1.3199-13.65-1.16c-4.59-0.0599-9.69,3.12-14.11,0.3101
	c-4.97-3.4601-11.69-0.26-16.8-3.28c-0.94-3.53,1.51-6.8101,3.26-9.66c3.59-4.8099,7.71-10.13,13.94-11.39
	c9.43-13.83,18.86-27.6699,28.26-41.53c7.04-10.2899,5.57-23.4099,9.31-34.84c4.11-12,9.96-23.34,16.62-34.12
	c2.32-3.7,3.69-7.87,5.31-11.89c7.41-18.65,14.81-37.31,22.23-55.96c7.05-16.99,10.33-35.18,14.29-53.06
	c4.06-18.24,9.08-37.7,23.29-50.88c-7.56-18.05-11.49-37.35-14.37-56.63c-3.26-20.76-5.66-41.98-13.73-61.57
	c-3.9-9.4-7.1-19.13-8.69-29.2c-3.63-19.34-2.51-39.2-5.53-58.61c-2.52-2.45-5.83-3.93-8.44-6.28c-4.56-3.57-8.28-8.12-10.86-13.3
	c-32.66-12.6-64.65-28.55-90.9-52.0699c-14-12.44-26.16-26.84-36.79-42.22c-17.68-26.4-24.47-58.53-25.34-89.9
	c-1.91-51.18,9.19-101.76,8.44-152.9c-23.53-8.13-44.7-21.84-64.15-37.17c-6.36-5.01-12.29-10.74-19.68-14.25
	c-12.69-6.17-27.08-7.36-41-7.18c-4.01-0.04-8.4,0.44-11.91-1.94c-6.28-4-10.76-10.16-15.25-15.97c0.01-1.59,0.16-3.19-0.12-4.76
	c-1.61-1.25-3.8-1.39-5.69-2.04v-0.66c2.18-14.73,1.88-30.06,7.6-44.07c2.21-4.79,3.53-10.6,8.16-13.72
	c13.02-10.28,28.79-15.94,43.2-23.86c21.21-11.6,35.22-32.41,55.44-45.38c3.46-2.17,6.75-4.59,10.14-6.86
	C162.88,15.23,208.53,1.49,254.41,0z"/>
</svg>
